<?xml version="1.0" encoding="UTF-8" standalone="no"?>
<!-- Created with Inkscape (http://www.inkscape.org/) -->

<svg
        version="1.1"
        id="svg1"
        width="300"
        height="300"
        viewBox="0 0 300 300"
        sodipodi:docname="ghidralite-orangered.svg"
        inkscape:version="1.3.2 (091e20ef0f, 2023-11-25, custom)"
        inkscape:export-filename="ghidralite.png"
        inkscape:export-xdpi="96"
        inkscape:export-ydpi="96"
        xmlns:inkscape="http://www.inkscape.org/namespaces/inkscape"
        xmlns:sodipodi="http://sodipodi.sourceforge.net/DTD/sodipodi-0.dtd"
        xmlns:xlink="http://www.w3.org/1999/xlink"
        xmlns="http://www.w3.org/2000/svg"
        xmlns:svg="http://www.w3.org/2000/svg">
    <defs
            id="defs1">
        <linearGradient
                id="linearGradient10"
                inkscape:collect="always">
            <stop
                    style="stop-color:#e5986c;stop-opacity:1;"
                    offset="0"
                    id="stop11" />
            <stop
                    style="stop-color:#bd5757;stop-opacity:1;"
                    offset="1"
                    id="stop12" />
        </linearGradient>
        <linearGradient
                inkscape:collect="always"
                xlink:href="#linearGradient10"
                id="linearGradient12"
                x1="15.00028"
                y1="150.00012"
                x2="285.00028"
                y2="150.00012"
                gradientUnits="userSpaceOnUse" />
    </defs>
    <sodipodi:namedview
            id="namedview1"
            pagecolor="#ffffff"
            bordercolor="#000000"
            borderopacity="0.25"
            inkscape:showpageshadow="2"
            inkscape:pageopacity="0.0"
            inkscape:pagecheckerboard="0"
            inkscape:deskcolor="#d1d1d1"
            inkscape:zoom="1.3890045"
            inkscape:cx="15.478711"
            inkscape:cy="168.46597"
            inkscape:window-width="1920"
            inkscape:window-height="1080"
            inkscape:window-x="0"
            inkscape:window-y="0"
            inkscape:window-maximized="1"
            inkscape:current-layer="g1" />
    <g
            inkscape:groupmode="layer"
            inkscape:label="logo"
            id="g1">
        <path
                id="path1"
                style="fill:url(#linearGradient12);stroke-width:1.18301;fill-opacity:1"
                d="m 195.33361,15 -2.76428,0.729766 c -1.52035,0.401189 -9.12216,2.790522 -16.89283,5.310824 -7.77065,2.520302 -22.69785,7.387439 -33.17136,10.815212 -10.47352,3.427774 -21.80711,7.17457 -25.18567,8.325558 -3.37857,1.150988 -8.35428,2.839856 -11.05713,3.753397 l -4.91428,1.661997 -5.890889,13.649729 -5.890894,13.651953 -17.451922,5.450992 c -9.598703,2.997961 -19.235273,6.204798 -21.413579,7.126341 -3.064146,1.2963 -4.15035,2.615948 -4.801498,5.831448 -0.604263,2.983976 -0.05773,6.244481 1.936437,11.560553 1.52765,4.07244 5.807324,13.29957 9.509413,20.50463 3.70209,7.20506 9.264823,17.05101 12.362479,21.87961 3.097653,4.82865 6.021116,8.55656 6.497979,8.2833 0.476866,-0.27328 1.213145,-2.09554 1.634093,-4.0471 0.420953,-1.95157 2.396537,-6.70246 4.391175,-10.55935 1.994644,-3.85688 6.275432,-9.49222 9.511815,-12.52171 3.689243,-3.45335 9.612881,-7.18144 15.880211,-9.99422 5.61579,-2.52031 14.14933,-5.22265 19.47475,-6.16741 5.2138,-0.92495 12.61099,-1.67294 16.4369,-1.662 3.82592,0.0109 10.54987,0.73719 14.94201,1.61528 4.39212,0.87806 10.47355,2.64916 13.51426,3.93583 3.04071,1.2867 7.11527,3.32824 9.0535,4.53434 1.93868,1.20643 6.45361,4.83337 10.03492,8.06079 4.37087,3.93899 8.13093,8.93866 11.43624,15.20939 3.86445,7.3314 5.22821,11.59524 6.33721,19.81269 1.06269,7.87064 1.06524,12.67932 0.01,19.36548 -0.77274,4.89214 -2.47767,11.61081 -3.7865,14.92906 -1.30883,3.31821 -3.5605,8.18809 -5.00545,10.82188 -1.44498,2.63376 -4.981,7.60734 -7.85853,11.05327 -2.87749,3.44592 -7.08515,7.85931 -9.34865,9.80735 -2.2635,1.94798 -7.15594,5.53813 -10.87237,7.97848 -3.71641,2.44033 -8.96854,5.52353 -11.67139,6.85266 -2.70287,1.32914 -8.50786,3.47169 -12.89998,4.75904 -4.39214,1.28736 -12.02269,2.9387 -16.95761,3.67108 -6.85298,1.01738 -11.90321,1.01654 -21.37279,-0.003 -6.81922,-0.73507 -16.177949,-2.60008 -20.796895,-4.14497 -4.61895,-1.54489 -12.164652,-4.82342 -16.768053,-7.28431 -4.603396,-2.46089 -11.903244,-7.43704 -16.223354,-11.05997 -4.320104,-3.62288 -11.111227,-10.65766 -15.090765,-15.6321 -3.979854,-4.97447 -8.313519,-11.00169 -9.629711,-13.39386 -1.316194,-2.39215 -3.743051,-7.82147 -5.394187,-12.0656 -1.651031,-4.24443 -3.850113,-11.45176 -4.885379,-16.01505 -1.035733,-4.56304 -1.881247,-10.41627 -1.881247,-13.00671 0,-3.0199 -0.424266,-4.31673 -1.182978,-3.61324 -0.650822,0.60345 -1.547676,5.96165 -1.994025,11.9054 -0.495225,6.59468 -0.219134,15.01859 0.710267,21.61486 0.837668,5.94528 3.292524,15.51728 5.454176,21.27 2.161647,5.75268 6.657108,14.73008 9.991724,19.9484 4.025375,6.29929 9.986081,13.13201 17.735069,20.33109 6.419256,5.96373 15.541415,13.21551 20.271393,16.11714 4.729976,2.90164 11.364278,6.53888 14.742832,8.08083 3.378554,1.54195 9.98977,3.97603 14.692433,5.41094 4.70269,1.4349 12.99556,3.25074 18.42855,4.03373 5.43299,0.78303 15.9604,1.46337 23.3932,1.51293 7.43281,0.0496 17.33023,-0.42061 21.99427,-1.0457 4.66408,-0.6251 12.40412,-2.22165 17.19997,-3.54648 4.79591,-1.32484 12.54063,-4.16236 17.20958,-6.30536 4.66891,-2.14297 11.57965,-5.78137 15.35711,-8.0875 3.77744,-2.30609 12.39611,-9.35441 19.1532,-15.66101 9.03109,-8.42903 13.82138,-14.01559 18.08061,-21.09201 3.18675,-5.2946 7.19614,-13.21543 8.91192,-17.60115 1.71577,-4.3857 3.94755,-12.0044 4.95746,-16.92923 1.00994,-4.9248 1.83568,-14.73509 1.83568,-21.80173 0,-7.06666 -0.83314,-16.91573 -1.85007,-21.8863 -1.01692,-4.9706 -3.20239,-12.23867 -4.85668,-16.15275 -1.65431,-3.91402 -4.97287,-10.3769 -7.37621,-14.36167 -2.40334,-3.98481 -7.22935,-10.14705 -10.72359,-13.69201 l -6.35401,-6.44552 5.75171,0.67191 c 3.16313,0.36868 8.3778,0.97161 11.58743,1.33939 3.20964,0.36776 10.16484,1.6193 15.4555,2.78334 6.55758,1.44279 10.54235,1.79126 12.51844,1.09464 1.59433,-0.56203 3.48482,-2.03763 4.20162,-3.27949 0.7168,-1.24185 1.29355,-3.956505 1.28377,-6.033914 -0.01,-2.077402 -0.42503,-4.344157 -0.92143,-5.034933 -0.49643,-0.690773 -3.66651,-2.092503 -7.04508,-3.117078 -3.37857,-1.024575 -12.53147,-2.888641 -20.34098,-4.140528 -7.8095,-1.251889 -21.84891,-2.782457 -31.19655,-3.401865 -9.34765,-0.619404 -17.21218,-1.326232 -17.47592,-1.570776 -0.26375,-0.244543 3.54775,-4.184326 8.46801,-8.754961 4.9203,-4.570634 12.18522,-10.814605 16.14418,-13.876669 3.95895,-3.062066 11.98643,-8.553699 17.84064,-12.203547 5.85421,-3.649847 14.64158,-8.50153 19.52514,-10.78184 4.88352,-2.280312 8.87833,-4.406128 8.87833,-4.723452 0,-0.317327 -1.24393,-0.342095 -2.76428,-0.05562 -1.52036,0.286475 -6.63427,1.282125 -11.36428,2.21377 -4.72998,0.931645 -12.7464,2.55826 -17.81424,3.613229 -5.06785,1.05497 -17.81884,4.40498 -28.33628,7.444499 -10.51742,3.039522 -20.05423,5.855739 -21.19281,6.260852 l -2.07082,0.738669 V 32.285207 Z m -52.84527,39.133676 c 0.45747,0.17657 0.3538,1.99587 -0.23036,4.042632 -0.58414,2.046763 -3.39414,5.969585 -6.24361,8.719364 -3.87563,3.739969 -6.88307,5.432806 -11.93777,6.716956 -3.71642,0.944165 -8.33134,2.040984 -10.25568,2.43626 -1.9243,0.39528 -3.30649,0.296709 -3.07143,-0.218038 0.23507,-0.51475 1.488,-3.569237 2.78349,-6.788155 1.59338,-3.959069 3.38205,-6.291963 5.52856,-7.20866 1.74522,-0.745322 7.542,-2.854288 12.88318,-4.687853 5.34116,-1.833562 10.08616,-3.189077 10.54362,-3.012506 z"
                inkscape:label="path" />
    </g>
</svg>